<?xml version="1.0" encoding="utf-8"?>
<!-- Generator: Adobe Illustrator 26.0.0, SVG Export Plug-In . SVG Version: 6.00 Build 0)  -->
<svg version="1.1" id="Layer_1" xmlns="http://www.w3.org/2000/svg" xmlns:xlink="http://www.w3.org/1999/xlink" x="0px" y="0px"
	 viewBox="0 0 48 48" style="enable-background:new 0 0 48 48;" xml:space="preserve">
<style type="text/css">
	.st0{fill:#4285F4;}
	.st1{fill:#FBBC05;}
	.st2{fill:#34A853;}
	.st3{fill:#EA4335;}
</style>
<path class="st0" d="M27.58,5.45C26.59,4.48,25.4,4,24,4s-2.59,0.48-3.58,1.45S18.95,7.6,18.95,9v12.55c0,1.47,0.48,2.72,1.45,3.75
	c0.97,1.03,2.17,1.55,3.6,1.55s2.63-0.52,3.6-1.55c0.97-1.03,1.45-2.28,1.45-3.75V9C29.05,7.6,28.56,6.42,27.58,5.45z"/>
<path class="st1" d="M13,21.55h-3c0,2.64,0.67,5.02,2.01,7.14l2.61-1.44C13.55,25.59,13,23.69,13,21.55z"/>
<path class="st2" d="M22.5,35.2V42h3v-6.8C24.04,35.38,22.5,35.2,22.5,35.2z"/>
<path class="st3" d="M35,21.55c0,3.03-1.08,5.58-3.22,7.65c-2.15,2.07-4.74,3.1-7.78,3.1s-5.62-1.03-7.78-3.1
	c-0.63-0.61-1.16-1.26-1.6-1.95l-2.61,1.44c0.45,0.72,0.98,1.4,1.59,2.06c2.4,2.6,5.37,4.08,8.9,4.45c0,0,1.54,0.18,3,0
	c3.53-0.37,6.5-1.85,8.9-4.45c2.4-2.6,3.6-5.67,3.6-9.2H35z"/>
</svg>
